<?xml version="1.0" encoding="UTF-8"?>
<svg width="20px" height="24px" viewBox="0 0 20 24" version="1.1" xmlns="http://www.w3.org/2000/svg" xmlns:xlink="http://www.w3.org/1999/xlink">
    <!-- Generator: Sketch 53.2 (72643) - https://sketchapp.com -->
    <title>Group</title>
    <desc>Created with Sketch.</desc>
    <g id="Page-1" stroke="none" stroke-width="1" fill="none" fill-rule="evenodd" stroke-linecap="round" stroke-linejoin="round">
        <g id="Group" stroke="#000000">
            <polygon id="Stroke-1885" points="14.5 6.5 5.5 6.5 5.5 0.5 14.5 0.5"></polygon>
            <polygon id="Stroke-1886" points="14.5 14.5 5.5 14.5 5.5 8.5 14.5 8.5"></polygon>
            <polygon id="Stroke-1887" points="14.5 22.5 5.5 22.5 5.5 16.5 14.5 16.5"></polygon>
            <path d="M0.5,23.5 L0.5,0.5" id="Stroke-1888"></path>
            <path d="M19.5,0.5 L19.5,23.5" id="Stroke-1889"></path>
            <polygon id="Stroke-1890" points="3.5 2.5 2.5 2.5 2.5 1.5 3.5 1.5"></polygon>
            <polygon id="Stroke-1891" points="3.5 6.5 2.5 6.5 2.5 5.5 3.5 5.5"></polygon>
            <polygon id="Stroke-1892" points="3.5 10.5 2.5 10.5 2.5 9.5 3.5 9.5"></polygon>
            <polygon id="Stroke-1893" points="3.5 14.5 2.5 14.5 2.5 13.5 3.5 13.5"></polygon>
            <polygon id="Stroke-1894" points="3.5 18.5 2.5 18.5 2.5 17.5 3.5 17.5"></polygon>
            <polygon id="Stroke-1895" points="3.5 22.5 2.5 22.5 2.5 21.5 3.5 21.5"></polygon>
            <polygon id="Stroke-1896" points="17.5 2.5 16.5 2.5 16.5 1.5 17.5 1.5"></polygon>
            <polygon id="Stroke-1897" points="17.5 6.5 16.5 6.5 16.5 5.5 17.5 5.5"></polygon>
            <polygon id="Stroke-1898" points="17.5 10.5 16.5 10.5 16.5 9.5 17.5 9.5"></polygon>
            <polygon id="Stroke-1899" points="17.5 14.5 16.5 14.5 16.5 13.5 17.5 13.5"></polygon>
            <polygon id="Stroke-1900" points="17.5 18.5 16.5 18.5 16.5 17.5 17.5 17.5"></polygon>
            <polygon id="Stroke-1901" points="17.5 22.5 16.5 22.5 16.5 21.5 17.5 21.5"></polygon>
        </g>
    </g>
</svg>