<?xml version="1.0" encoding="UTF-8"?>
<svg width="18px" height="16px" viewBox="0 0 18 16" version="1.1" xmlns="http://www.w3.org/2000/svg" xmlns:xlink="http://www.w3.org/1999/xlink">
    <!-- Generator: Sketch 53.2 (72643) - https://sketchapp.com -->
    <title>Stroke 366 Copy 2</title>
    <desc>Created with Sketch.</desc>
    <g id="Page-1" stroke="none" stroke-width="1" fill="none" fill-rule="evenodd">
        <path d="M8.80002282,15.3753774 C8.8236239,15.3574062 8.84834568,15.3385302 8.87416145,15.3187617 C9.17089385,15.0915379 9.50194057,14.8301985 9.8586676,14.5387309 C10.8779992,13.7058752 11.8972622,12.7998616 12.8470769,11.8532417 C14.3021325,10.4030804 15.4574477,8.99231074 16.1995494,7.68154851 C16.7913076,6.63633541 17.1000456,5.68707148 17.1000456,4.85917111 C17.1000456,-0.381660777 10.6632842,-1.29696826 9.28616762,4.43045953 L8.80002282,6.45233576 L8.31387801,4.43045953 C6.93676145,-1.29696826 0.5,-0.381660777 0.5,4.85917111 C0.5,5.68707148 0.808737991,6.63633541 1.40049627,7.68154851 C2.14259795,8.99231074 3.29791311,10.4030804 4.75296868,11.8532417 C5.7027834,12.7998616 6.72204647,13.7058752 7.74137803,14.5387309 C8.09810506,14.8301985 8.42915178,15.0915379 8.72588418,15.3187617 C8.75169995,15.3385302 8.77642173,15.3574062 8.80002282,15.3753774 Z" id="Stroke-366-Copy-2" stroke="#000000"></path>
    </g>
</svg>